<svg id="angry" width="17" height="18" viewBox="0 0 17 18" xmlns="http://www.w3.org/2000/svg">
    <path class="angry" fill="#003366"
          d="M8.18925 0.234375C3.66535 0.234375 0 4.03881 0 8.73438C0 13.4299 3.66535 17.2344 8.18925 17.2344C12.7131 17.2344 16.3785 13.4299 16.3785 8.73438C16.3785 4.03881 12.7131 0.234375 8.18925 0.234375ZM8.18925 15.5892C4.54701 15.5892 1.58502 12.5148 1.58502 8.73438C1.58502 4.95393 4.54701 1.87954 8.18925 1.87954C11.8315 1.87954 14.7935 4.95393 14.7935 8.73438C14.7935 12.5148 11.8315 15.5892 8.18925 15.5892ZM8.18925 10.6537C7.07974 10.6537 6.03627 11.161 5.32301 12.0453C5.04233 12.3949 5.08856 12.9124 5.42538 13.2037C5.76219 13.4951 6.26081 13.4505 6.54149 13.1009C7.36042 12.083 9.01808 12.083 9.837 13.1009C10.1045 13.4334 10.6031 13.5088 10.9531 13.2037C11.2899 12.9124 11.3329 12.3949 11.0555 12.0453C10.3422 11.161 9.29876 10.6537 8.18925 10.6537ZM6.60423 8.18599C6.94435 8.18599 7.26135 7.95635 7.36372 7.5999C7.4892 7.16462 7.25145 6.70534 6.83208 6.5751L4.19039 5.75252C3.76771 5.61885 3.32853 5.86905 3.20305 6.30434C3.07757 6.73962 3.31532 7.19889 3.73469 7.32913L4.66589 7.62046C4.56352 7.78841 4.49088 7.97692 4.49088 8.18942C4.49088 8.79607 4.96308 9.28619 5.54755 9.28619C6.13203 9.28619 6.60423 8.79264 6.60423 8.18599V8.18599ZM13.1754 6.30434C13.05 5.86905 12.6108 5.62228 12.1881 5.75252L9.54642 6.5751C9.12705 6.70534 8.8893 7.16462 9.01478 7.5999C9.11714 7.95635 9.43415 8.18599 9.77426 8.18599C9.77426 8.79264 10.2465 9.28276 10.8309 9.28276C11.4154 9.28276 11.8876 8.79264 11.8876 8.18599C11.8876 7.97349 11.815 7.78498 11.7126 7.61704L12.6438 7.32571C13.0632 7.19889 13.3009 6.73962 13.1754 6.30434Z"
          />
</svg>
