<svg width="21" height="21" viewBox="0 0 21 21" fill="none" xmlns="http://www.w3.org/2000/svg">
<path d="M10.5 0C4.70142 0 0 4.70311 0 10.5C0 16.3003 4.70142 21 10.5 21C16.2986 21 21 16.3003 21 10.5C21 4.70311 16.2986 0 10.5 0ZM10.5 4.65726C11.4821 4.65726 12.2782 5.4534 12.2782 6.43548C12.2782 7.41757 11.4821 8.21371 10.5 8.21371C9.51791 8.21371 8.72177 7.41757 8.72177 6.43548C8.72177 5.4534 9.51791 4.65726 10.5 4.65726ZM12.871 15.4113C12.871 15.6919 12.6435 15.9194 12.3629 15.9194H8.6371C8.35652 15.9194 8.12903 15.6919 8.12903 15.4113V14.3952C8.12903 14.1146 8.35652 13.8871 8.6371 13.8871H9.14516V11.1774H8.6371C8.35652 11.1774 8.12903 10.9499 8.12903 10.6694V9.65323C8.12903 9.37265 8.35652 9.14516 8.6371 9.14516H11.3468C11.6274 9.14516 11.8548 9.37265 11.8548 9.65323V13.8871H12.3629C12.6435 13.8871 12.871 14.1146 12.871 14.3952V15.4113Z" fill="#CCCCCC"/>
</svg>
