<svg width="60" height="60" viewBox="0 0 60 60" fill="none" xmlns="http://www.w3.org/2000/svg">
<path d="M15.2398 20.6463C12.362 19.4245 0.840456 13.5763 5.89849 0C5.89849 0 8.37759 10.4236 19.7581 13.0608H19.7595" fill="#EFBB6A"/>
<path d="M19.7595 13.0608L15.2398 20.6463C12.362 19.4245 0.840456 13.5763 5.89849 0C5.89849 0 6.01955 0.506952 6.32998 1.32715C4.98854 11.7507 14.2658 16.4356 16.8062 17.5135L19.4961 12.9981C19.5829 13.0194 19.6698 13.0408 19.7581 13.0608H19.7595V13.0608Z" fill="#D89F55"/>
<path d="M48.2986 18.7112C46.8319 19.7036 45.5062 20.3302 44.76 20.6464L40.2404 13.0609H40.2418C41.3325 12.8074 42.3421 12.4842 43.2748 12.1039C52.0751 8.52116 54.1014 0 54.1014 0C57.8492 10.059 52.4951 15.8759 48.2986 18.7112Z" fill="#EFBB6A"/>
<path d="M48.2986 18.7112C46.8319 19.7037 45.5062 20.3302 44.76 20.6464L40.2404 13.0609H40.2418C41.3325 12.8074 42.3421 12.4842 43.2748 12.1039C44.4134 14.8799 45.1659 16.7716 48.2986 18.7112Z" fill="#D89F55"/>
<path d="M30.0005 40.461C38.7371 40.461 45.8195 33.3786 45.8195 24.642C45.8195 15.9054 38.7371 8.823 30.0005 8.823C21.264 8.823 14.1815 15.9054 14.1815 24.642C14.1815 33.3786 21.264 40.461 30.0005 40.461Z" fill="#EFBB6A"/>
<path d="M20.411 24.6424C20.411 15.9059 24.7041 8.82361 30.0001 8.82361C21.2636 8.82361 14.1813 15.9059 14.1813 24.6424C14.1813 33.3789 21.2636 40.4612 30.0001 40.4612C24.7041 40.4612 20.411 33.379 20.411 24.6424Z" fill="#D89F55"/>
<path d="M41.7939 48.9356C41.6786 49.7259 41.4835 50.4905 41.2172 51.2139C40.3985 53.4425 38.9061 55.2822 36.9724 56.3061L29.9991 59.9999L23.0273 56.3062C21.0935 55.2823 19.6012 53.4426 18.7838 51.214C18.5176 50.4906 18.3225 49.726 18.2072 48.9357C18.2072 48.9357 23.6169 46.8794 27.1085 45.0212C28.7731 44.1354 30.0005 43.2953 30.0005 42.7428C30.0005 43.2953 31.228 44.1354 32.8926 45.0212C36.3842 46.8794 41.7939 48.9356 41.7939 48.9356Z" fill="#D88948"/>
<path d="M26.5634 55.1851C25.3857 53.535 24.5402 50.2631 24.2434 46.4171C21.2493 47.7792 18.2072 48.9356 18.2072 48.9356C18.6785 52.1624 20.4656 54.9491 23.0273 56.3061L29.9991 60L29.9997 59.9998L26.5634 55.1851Z" fill="#C4783F"/>
<path d="M21.4924 42.8152C22.0926 42.8152 22.2806 41.9645 21.7196 41.7508C21.6521 41.7251 21.5811 41.7113 21.5077 41.7113H21.5068C20.0408 41.7113 18.8524 40.0652 18.8524 38.0346V27.5661H14.5591V38.0346C14.5591 40.0652 16.2052 41.7113 18.2359 41.7113H18.2372C18.8468 41.7113 19.3409 42.2056 19.3409 42.8152H21.4924Z" fill="#CCCCCC"/>
<path d="M37.1075 39.5224C34.5079 39.5222 32.3132 37.6578 31.8891 35.0894L31.8726 34.989C31.8176 34.6563 32.0428 34.3423 32.3755 34.2874L41.6188 32.7618C41.9513 32.707 42.2655 32.932 42.3204 33.2647C42.5489 34.6494 42.2668 36.0843 41.468 37.2383C40.6441 38.4285 39.3998 39.2159 37.9752 39.451C37.6881 39.4985 37.3966 39.5224 37.1077 39.5224C37.1076 39.5224 37.1076 39.5224 37.1075 39.5224Z" fill="#CCCCCC"/>
<path d="M32.5918 34.9733C33.0039 37.4704 35.3621 39.1605 37.8592 38.7484C40.3564 38.3362 42.0464 35.978 41.6343 33.4809L32.5918 34.9733Z" fill="#666666"/>
<path d="M22.8924 39.5223C22.6037 39.5223 22.3118 39.4983 22.0247 39.451C20.6001 39.2159 19.3558 38.4287 18.5319 37.2382C17.7331 36.0843 17.451 34.6493 17.6795 33.2646L17.7788 32.6625L27.524 34.2708C27.912 34.3349 28.1746 34.7012 28.1105 35.0894C27.6867 37.6579 25.492 39.5223 22.8924 39.5223Z" fill="#CCCCCC"/>
<path d="M27.4081 34.9733C26.996 37.4704 24.6378 39.1605 22.1407 38.7484C19.6435 38.3362 17.9534 35.978 18.3656 33.4809L27.4081 34.9733Z" fill="#666666"/>
<path d="M46.4502 22.9786H13.5497C13.2132 22.9786 12.9403 23.2514 12.9403 23.588V30.0897C12.9403 30.4262 13.2131 30.6991 13.5497 30.6991H46.4502C46.7867 30.6991 47.0596 30.4263 47.0596 30.0897V23.588C47.0595 23.2513 46.7867 22.9786 46.4502 22.9786Z" fill="#EFBB6A"/>
<path d="M21.5987 22.9788H12.9398V30.6996H21.5987V22.9788Z" fill="#D89F55"/>
<path d="M33.3106 9.33902L30.0001 5.56512L26.6896 9.33902V22.9786H33.3106V9.33902Z" fill="#EFBB6A"/>
<path d="M30.0001 5.56512V23.7057H26.6896V9.33902L30.0001 5.56512Z" fill="#D89F55"/>
<path d="M30 38.2925L33.1445 43.739H26.8554L30 38.2925Z" fill="#666666"/>
<path d="M30.0005 45.021C30.0005 45.2588 29.9878 45.4952 29.9607 45.7259C29.7984 47.1542 29.1505 48.4358 28.1864 49.3997C27.0643 50.5204 25.5164 51.2139 23.8062 51.2139H18.7838C18.5176 50.4905 18.3225 49.7259 18.2072 48.9356C18.2072 48.9356 26.5089 44.6009 30.0005 42.7427V45.021Z" fill="#C4783F"/>
<path d="M41.7939 48.9356C41.6786 49.7259 41.4835 50.4905 41.2173 51.2139H36.1934C34.4832 51.2139 32.9354 50.5204 31.8147 49.3997C30.6941 48.2791 30.0005 46.7311 30.0005 45.021V42.7427C33.4921 44.601 41.7939 48.9356 41.7939 48.9356Z" fill="#C4783F"/>
<path d="M31.4597 25.3787C31.2374 25.1562 30.8765 25.1562 30.6543 25.3787L29.9999 26.033L29.3454 25.3785C29.1231 25.1561 28.7622 25.1561 28.54 25.3785C28.3175 25.6011 28.3175 25.9617 28.54 26.1841L29.1945 26.8386L28.54 27.4931C28.3175 27.7156 28.3175 28.0762 28.54 28.2986C28.6511 28.4098 28.797 28.4654 28.9427 28.4654C29.0883 28.4654 29.2343 28.4097 29.3453 28.2986L29.9998 27.6441L30.6543 28.2986C30.7654 28.4098 30.9113 28.4654 31.057 28.4654C31.2026 28.4654 31.3486 28.4097 31.4596 28.2986C31.6822 28.0761 31.6822 27.7155 31.4596 27.4931L30.8051 26.8386L31.4596 26.1841C31.6824 25.9618 31.6824 25.6012 31.4597 25.3787Z" fill="#666666"/>
<path d="M19.4882 25.3796C19.2659 25.1572 18.905 25.1572 18.6828 25.3796L18.0283 26.0341L17.3738 25.3796C17.1515 25.1572 16.7906 25.1572 16.5684 25.3796C16.3459 25.6021 16.3459 25.9627 16.5684 26.1851L17.2229 26.8396L16.5684 27.4941C16.3459 27.7166 16.3459 28.0772 16.5684 28.2997C16.6795 28.4109 16.8254 28.4664 16.971 28.4664C17.1167 28.4664 17.2627 28.4107 17.3737 28.2997L18.0282 27.6452L18.6827 28.2997C18.7938 28.4109 18.9397 28.4664 19.0853 28.4664C19.231 28.4664 19.377 28.4107 19.488 28.2997C19.7105 28.0771 19.7105 27.7165 19.488 27.4941L18.8335 26.8396L19.488 26.1851C19.7108 25.9627 19.7108 25.6021 19.4882 25.3796Z" fill="#666666"/>
<path d="M42.777 26.8386L43.4315 26.1841C43.654 25.9616 43.654 25.601 43.4315 25.3785C43.2092 25.1561 42.8482 25.1561 42.626 25.3785L41.9715 26.033L41.3171 25.3785C41.0948 25.1561 40.7338 25.1561 40.5116 25.3785C40.2891 25.6011 40.2891 25.9617 40.5116 26.1841L41.1661 26.8386L40.5116 27.4931C40.2891 27.7156 40.2891 28.0762 40.5116 28.2986C40.6227 28.4098 40.7686 28.4654 40.9143 28.4654C41.0599 28.4654 41.206 28.4097 41.3169 28.2986L41.9714 27.6441L42.6259 28.2986C42.737 28.4098 42.8829 28.4654 43.0286 28.4654C43.1742 28.4654 43.3203 28.4097 43.4312 28.2986C43.6538 28.0761 43.6538 27.7155 43.4312 27.4931L42.777 26.8386Z" fill="#666666"/>
<path d="M30.0005 42.7427C30.0005 42.9804 29.9877 43.2168 29.9607 43.4476C29.7984 44.8758 29.1504 46.1574 28.1863 47.1214C27.0643 48.242 25.5163 48.9356 23.8062 48.9356H13.34C13.34 47.2253 14.0335 45.6775 15.1542 44.5569C16.2762 43.4362 17.8242 42.7427 19.5344 42.7427H30.0005Z" fill="#C4783F"/>
<path d="M29.9607 43.4475C29.7984 44.8758 29.1505 46.1574 28.1864 47.1213C27.0643 48.242 25.5164 48.9355 23.8063 48.9355H17.3243C17.4852 47.5072 18.1331 46.2257 19.0971 45.2617C20.2192 44.141 21.7671 43.4475 23.4772 43.4475H29.9607Z" fill="#D88948"/>
<path d="M46.6596 48.9356H41.7939H36.1934C34.4832 48.9356 32.9354 48.242 31.8147 47.1214C30.694 46.0007 30.0005 44.4528 30.0005 42.7427H40.4653C42.1756 42.7427 43.7248 43.4362 44.8456 44.5569C45.9662 45.6775 46.6596 47.2253 46.6596 48.9356Z" fill="#C4783F"/>
<path d="M34.0232 43.4475C34.1855 44.8758 34.8334 46.1574 35.7975 47.1213C36.9196 48.242 38.4675 48.9355 40.1778 48.9355H46.6597C46.4988 47.5072 45.8509 46.2257 44.8869 45.2617C43.7649 44.141 42.2169 43.4475 40.5067 43.4475H34.0232Z" fill="#D88948"/>
</svg>
