<svg width="107" height="107" viewBox="0 0 107 107" fill="none" xmlns="http://www.w3.org/2000/svg">
<path d="M9.50649 4.7525L31.3752 8.58319L39.8671 17.0751L51.0478 28.2557L53.5315 30.7395L61.0732 38.2811L80.9455 58.1532L74.0906 69.3366L73.7658 69.8637L65.4894 74.6872L62.9047 76.194L61.0732 74.3625L53.5315 66.8209L13.3345 26.624L9.50649 4.7525Z" fill="#CCCCCC"/>
<path d="M53.5316 30.7395L61.0732 38.2811V74.3625L53.5316 66.8209V30.7395Z" fill="#F2F2F2"/>
<path d="M39.8677 17.0748L51.0484 28.2555V64.3369L39.8677 53.1564V17.0748Z" fill="#E6E6E6"/>
<path d="M9.50691 4.75208L13.3351 26.6235L62.9051 76.1938L74.9502 70.1951L9.50691 4.75208Z" fill="#B3B3B3"/>
<path d="M83.0462 68.4073L97.6264 82.9873L96.8434 91.2499L87.7421 92.8716L73.1621 78.2941L75.2806 69.8647L83.0462 68.4073Z" fill="#D88948"/>
<path d="M74.6785 72.2612L93.3918 90.9747L87.7421 92.8716L73.1621 78.2941L74.6785 72.2612Z" fill="#C4783F"/>
<path d="M103.017 89.9515C103.754 90.6888 104.254 91.5753 104.518 92.5124C105.077 94.4929 104.576 96.7077 103.017 98.2651C100.722 100.56 97.0003 100.56 94.7029 98.2651L95.2273 95.5364L95.8662 92.2248L103.017 89.9515Z" fill="#DD6352"/>
<path d="M103.017 89.9515C103.754 90.6888 104.254 91.5753 104.518 92.5124C104.254 93.4495 103.754 94.3332 103.017 95.0705C100.89 97.1976 97.5353 97.352 95.2273 95.5364L95.8661 92.2248L103.017 89.9515Z" fill="#F97C64"/>
<path d="M100.82 79.7925L107 85.9722L103.017 89.9519L90.723 102.245L84.5453 96.0674L100.82 79.7925Z" fill="#EFBB6A"/>
<path d="M89.9024 90.7103L96.082 96.89L92.0992 100.869L90.723 102.245L84.5453 96.0674L89.9024 90.7103Z" fill="#D89F55"/>
<path d="M92.0238 59.431L64.1856 87.2692L58.0078 81.0914L85.8441 53.2551L92.0238 59.431Z" fill="#EFBB6A"/>
<path d="M71.1295 80.3253L64.1856 87.2692L58.0078 81.0914L64.9498 74.1494L71.1295 80.3253Z" fill="#D89F55"/>
<path d="M35.491 48.7797L43.0326 56.3213H63.962L71.5036 48.7797H35.491Z" fill="white"/>
<path d="M74.0241 51.2315L73.9895 51.2634L66.4478 58.8048L55.9834 69.272L43.0324 56.3213L37.9426 51.2315L55.9834 33.1907L71.5723 48.7797L74.0241 51.2315Z" fill="#B3B3B3"/>
<path d="M71.5057 48.7797L63.9641 56.3213H43.0351L35.4935 48.7797H71.5057Z" fill="white"/>
<path d="M97.4927 4.75458L93.662 26.6233L85.1701 35.1152L73.9894 46.2959L71.5057 48.7796L63.9641 56.3213L44.0919 76.1934L32.9086 69.3387L32.3815 69.0139L27.5579 60.7375L26.0511 58.1528L27.8827 56.3213L35.4243 48.7796L75.6212 8.58254L97.4927 4.75458Z" fill="#CCCCCC"/>
<path d="M71.5057 48.7797L63.9641 56.3213H27.8827L35.4243 48.7797H71.5057Z" fill="#E6E6E6"/>
<path d="M85.1703 35.1158L73.9897 46.2965H37.9083L49.0888 35.1158H85.1703Z" fill="#E6E6E6"/>
<path d="M97.4931 4.755L75.6216 8.58318L26.0514 58.1532L32.0501 70.1983L97.4931 4.755Z" fill="#B3B3B3"/>
<path d="M33.8379 78.2943L19.2579 92.8745L10.9957 92.0915L9.37358 82.9902L23.9511 68.4102L32.3807 70.5287L33.8379 78.2943Z" fill="#D88948"/>
<path d="M29.9842 69.9266L11.2709 88.6399L9.37358 82.9902L23.9511 68.4102L29.9842 69.9266Z" fill="#C4783F"/>
<path d="M12.2937 98.2647C11.5564 99.002 10.6699 99.5025 9.73282 99.766C7.75228 100.325 5.53746 99.8245 3.98011 98.2647C1.68546 95.97 1.68546 92.2484 3.98011 89.951L6.70882 90.4754L10.0204 91.1143L12.2937 98.2647Z" fill="#DD6352"/>
<path d="M12.2937 98.2647C11.5564 99.002 10.6699 99.5025 9.73282 99.766C8.79574 99.5025 7.91194 99.002 7.17464 98.2647C5.0476 96.1376 4.89316 92.7834 6.70882 90.4754L10.0204 91.1143L12.2937 98.2647Z" fill="#F97C64"/>
<path d="M22.4529 96.0683L16.2728 102.248L12.2937 98.2649L0 85.9712L6.17779 79.7934L22.4529 96.0683Z" fill="#EFBB6A"/>
<path d="M11.5349 85.1505L5.35522 91.3302L1.37595 87.3473L0 85.9712L6.17779 79.7934L11.5349 85.1505Z" fill="#D89F55"/>
<path d="M42.814 87.2719L14.976 59.4337L21.154 53.2559L48.9903 81.0922L42.814 87.2719Z" fill="#EFBB6A"/>
<path d="M21.9202 66.3776L14.976 59.4337L21.154 53.2559L28.0961 60.198L21.9202 66.3776Z" fill="#D89F55"/>
</svg>
