<svg width="81" height="81" viewBox="0 0 81 81" fill="none" xmlns="http://www.w3.org/2000/svg">
<path d="M30.6998 11.917C29.0924 13.3639 28.1877 18.4058 27.1951 20.3519C26.7692 21.1877 26.0534 20.3789 23.6037 19.914L23.5182 19.8872H21.8395C16.4969 19.8872 12.1666 15.5569 12.1666 10.2163V0C12.1666 0.0890684 12.1684 0.176396 12.1702 0.265465C12.1702 0.311818 12.172 0.356273 12.1739 0.400887C12.1756 0.473977 12.1793 0.547066 12.1827 0.619998C12.1881 0.714445 12.1935 0.810633 12.2006 0.90508C12.206 0.971051 12.2114 1.03512 12.2166 1.09935C12.222 1.1688 12.2291 1.23841 12.238 1.30787C12.238 1.31324 12.238 1.31672 12.2397 1.32036C12.2468 1.40405 12.2576 1.48616 12.2682 1.56985C12.302 1.83009 12.3447 2.08844 12.3947 2.34141C12.4072 2.40912 12.4215 2.47509 12.4357 2.5428C12.4803 2.74767 12.5284 2.9508 12.5836 3.15046C12.5979 3.20741 12.6139 3.26626 12.6317 3.32337C12.867 4.14128 13.1859 4.9236 13.5779 5.66146C13.6135 5.72917 13.651 5.79688 13.6884 5.86285C13.7347 5.9448 13.7811 6.02675 13.8274 6.10696C13.8649 6.16929 13.9005 6.22988 13.9398 6.29047C14.134 6.60941 14.3443 6.91949 14.567 7.21707C14.6222 7.29016 14.6775 7.36135 14.7346 7.43444C16.939 10.2376 20.3623 12.0393 24.2079 12.0393H28.5044L30.6998 11.917Z" fill="#E6E6E6"/>
<path d="M24.6836 17.2998C27.3733 17.2998 28.0268 19.3421 23.6037 19.914L23.5182 19.8872H21.8395C16.4969 19.8872 12.1666 15.5569 12.1666 10.2163V0C12.1666 0.0890684 12.1684 0.176396 12.1702 0.265465C12.1702 0.310078 12.172 0.356273 12.1739 0.400887C12.1756 0.473977 12.1793 0.547066 12.1827 0.619998C12.1881 0.716186 12.1935 0.810633 12.2006 0.90508C12.206 0.971051 12.2114 1.03512 12.2166 1.09935C12.222 1.1688 12.2291 1.23841 12.238 1.30787C12.238 1.31324 12.238 1.31672 12.2397 1.32036C12.2468 1.40405 12.2576 1.48616 12.2682 1.56985C12.302 1.83009 12.3447 2.08844 12.3947 2.34141C12.4072 2.40912 12.4215 2.47509 12.4357 2.5428C12.4803 2.74767 12.5284 2.9508 12.5836 3.15046C12.5996 3.20741 12.6157 3.26626 12.6317 3.32337C12.867 4.14128 13.1859 4.9236 13.5779 5.66146C13.6135 5.72917 13.651 5.79688 13.6884 5.86285C13.7347 5.9448 13.7811 6.02675 13.8274 6.10696C13.8649 6.16929 13.9023 6.22988 13.9398 6.29047C14.134 6.60941 14.3443 6.91949 14.567 7.21707C14.6222 7.29016 14.6775 7.36325 14.7346 7.43444C14.7524 7.45754 14.7702 7.48253 14.7898 7.50579V7.61099C14.7898 12.9624 19.1272 17.2998 24.4804 17.2998H24.6836Z" fill="#CCCCCC"/>
<path d="M68.8332 0V10.2163C68.8332 14.4166 66.1566 17.9912 62.4145 19.3259C61.3986 19.6895 60.3028 19.8872 59.1623 19.8872H57.4818L54.9674 19.9122L54.6983 19.914C54.6502 19.7661 54.6002 19.6199 54.545 19.4739C53.4901 16.6422 51.1805 14.1385 48.9957 12.1712L52.4956 12.0393H56.7938C57.5084 12.0393 58.2069 11.9769 58.8859 11.8592C58.8859 11.8575 58.8859 11.8575 58.8859 11.8575C64.5387 10.8686 68.8332 5.93594 68.8332 0Z" fill="#E6E6E6"/>
<path d="M62.4145 19.3261C61.3986 19.6896 60.3028 19.8874 59.1623 19.8874H57.4818L54.9674 19.9124L54.545 19.474C53.4901 16.6423 51.1805 14.1386 48.9957 12.1714L52.4956 12.0394H56.7938C57.5084 12.0394 58.2069 11.9771 58.8859 11.8594C58.838 11.984 56.7565 17.5635 62.4145 19.3261Z" fill="#CCCCCC"/>
<path d="M58.3194 33.8849C61.2175 33.8849 63.5668 36.2344 63.5668 39.1323C63.5668 42.0303 61.2173 44.3798 58.3194 44.3798H22.6813C19.7831 44.3798 17.4338 42.0303 17.4338 39.1323C17.4338 36.2344 19.7833 33.8849 22.6813 33.8849" fill="#D6977F"/>
<path d="M58.3194 52.7545V31.5192H24.4633V52.7545" fill="#F7BFA6"/>
<path d="M26.2448 52.7544V32.5737H22.6813V52.7544" fill="#D6977F"/>
<path d="M57.3962 19.9141C56.4268 16.9007 54.6733 14.2402 52.3763 12.1712C50.1309 10.1485 47.3652 8.69086 44.3056 8.02087H36.6946C33.633 8.69086 30.8692 10.1485 28.6238 12.1712C26.3269 14.2402 24.5734 16.9007 23.6039 19.9141C23.2154 21.124 22.9516 22.3911 22.8304 23.6991L34.7985 26.6483L50.9556 25.698L58.1716 23.6991C58.0503 22.3911 57.7865 21.124 57.3962 19.9141Z" fill="#EFBB6A"/>
<path d="M39.6694 30.3906H38.0034V43.4422H39.6694V30.3906Z" fill="#D6977F"/>
<path d="M36.6944 8.02087H38.038C36.0564 8.69086 34.269 10.1485 32.8167 12.1712C31.3286 14.2402 30.1953 16.9007 29.568 19.9141C29.3168 21.1241 29.1456 22.3911 29.0673 23.6991H22.8303C22.9515 22.3911 23.2152 21.1241 23.6037 19.9141C24.5732 16.9007 26.3267 14.2402 28.6237 12.1712C30.8691 10.1485 33.633 8.69086 36.6944 8.02087Z" fill="#D89F55"/>
<path d="M59.6337 23.6992H58.1714H44.3056V8.02096V6.92952C44.3056 6.21934 43.73 5.6438 43.0199 5.6438H37.9803C37.2703 5.6438 36.6947 6.21934 36.6947 6.92936V8.02096V23.6992H22.8306H21.3664C21.1032 23.6992 20.8898 23.9125 20.8898 24.1759V32.0971C20.8898 32.3603 21.103 32.5736 21.3663 32.5736H59.4401C59.8103 32.5736 60.1102 32.2735 60.1102 31.9035V24.1757C60.1102 23.9125 59.897 23.6992 59.6337 23.6992Z" fill="#CCCCCC"/>
<path d="M36.6944 8.02096V6.92952C36.6944 6.21934 37.27 5.6438 37.9801 5.6438H39.4317V8.02096V23.6992H36.6944V8.02096V8.02096Z" fill="#B3B3B3"/>
<path d="M30.0455 23.6992H30.5217V32.5736H21.3663C21.103 32.5736 20.8898 32.3604 20.8898 32.0971V24.1759C20.8898 23.9126 21.103 23.6994 21.3663 23.6994H24.771H26.6401H30.0455V23.6992Z" fill="#B3B3B3"/>
<path d="M48.5837 41.2598H32.4168C27.0401 41.2598 22.6813 45.6186 22.6813 50.9953V58.9042C22.6813 63.8233 25.5802 68.2804 30.077 70.2747L33.3253 71.7154C37.1292 73.4025 39.8269 76.8931 40.5002 80.9994C41.1736 76.893 43.871 73.4025 47.675 71.7154L50.9234 70.2747C55.4201 68.2804 58.3191 63.8232 58.3191 58.9042V50.9953C58.3194 45.6186 53.9607 41.2598 48.5837 41.2598Z" fill="#D88948"/>
<path d="M50.117 39.8343C48.9624 39.8343 48.0232 38.895 48.0232 37.7404C48.0232 36.5859 48.9624 35.6466 50.117 35.6466C51.2716 35.6466 52.2108 36.5859 52.2108 37.7404C52.211 38.8948 51.2714 39.8343 50.117 39.8343Z" fill="#D6977F"/>
<path d="M50.1176 38.9425C50.7819 38.9425 51.3205 38.404 51.3205 37.7397C51.3205 37.0754 50.7819 36.5369 50.1176 36.5369C49.4533 36.5369 48.9148 37.0754 48.9148 37.7397C48.9148 38.404 49.4533 38.9425 50.1176 38.9425Z" fill="#67C1E8"/>
<path d="M30.8836 39.8343C29.7291 39.8343 28.7898 38.895 28.7898 37.7404C28.7898 36.5859 29.7291 35.6466 30.8836 35.6466C32.0382 35.6466 32.9774 36.5859 32.9774 37.7404C32.9776 38.8948 32.0382 39.8343 30.8836 39.8343Z" fill="#D6977F"/>
<path d="M30.8843 38.9425C31.5486 38.9425 32.0871 38.404 32.0871 37.7397C32.0871 37.0754 31.5486 36.5369 30.8843 36.5369C30.22 36.5369 29.6814 37.0754 29.6814 37.7397C29.6814 38.404 30.22 38.9425 30.8843 38.9425Z" fill="#67C1E8"/>
<path d="M44.9798 48.829H36.021C33.7033 48.829 31.8243 50.708 31.8243 53.0256C31.8243 55.2362 33.5338 57.0462 35.7026 57.2092C35.7026 55.5518 37.0461 54.2084 38.7034 54.2084H42.2977C43.955 54.2084 45.2985 55.5518 45.2985 57.2092C47.4674 57.0462 49.1768 55.2362 49.1768 53.0256C49.1765 50.7078 47.2975 48.829 44.9798 48.829Z" fill="#F7BFA6"/>
<path d="M33.5171 53.0259C33.5171 54.1308 33.9447 55.1358 34.6433 55.8843C34.9569 56.2228 35.3276 56.5098 35.7392 56.7289C35.7142 56.8857 35.7017 57.0444 35.7017 57.2083C34.6164 57.1281 33.647 56.6345 32.9502 55.8843C32.2516 55.1358 31.824 54.1308 31.824 53.0259C31.824 50.7074 33.7022 48.8292 36.0206 48.8292H37.7136C35.3954 48.8292 33.5171 50.7074 33.5171 53.0259Z" fill="#D6977F"/>
<path d="M30.9622 37.7403L26.9823 36.5348C27.3532 35.3103 28.6466 34.6185 29.871 34.9894L33.8509 36.1949C33.48 37.4194 32.1869 38.1112 30.9622 37.7403Z" fill="#4D4D4D"/>
<path d="M47.1496 36.1948L51.1297 34.9893C52.3542 34.6185 53.6475 35.3105 54.0183 36.5348L50.0382 37.7403C48.8137 38.1112 47.5204 37.4193 47.1496 36.1948Z" fill="#4D4D4D"/>
<path d="M52.1615 29.4728C52.8996 29.4728 53.498 28.8744 53.498 28.1363C53.498 27.3982 52.8996 26.7998 52.1615 26.7998C51.4233 26.7998 50.825 27.3982 50.825 28.1363C50.825 28.8744 51.4233 29.4728 52.1615 29.4728Z" fill="#666666"/>
<path d="M47.498 29.4728C48.2361 29.4728 48.8344 28.8744 48.8344 28.1363C48.8344 27.3982 48.2361 26.7998 47.498 26.7998C46.7598 26.7998 46.1615 27.3982 46.1615 28.1363C46.1615 28.8744 46.7598 29.4728 47.498 29.4728Z" fill="#666666"/>
<path d="M56.8258 29.4729C57.5635 29.4729 58.164 28.8741 58.164 28.1364C58.164 27.3987 57.5635 26.7999 56.8258 26.7999C56.0881 26.7999 55.4893 27.3987 55.4893 28.1364C55.4893 28.8741 56.0882 29.4729 56.8258 29.4729Z" fill="#666666"/>
<path d="M42.8318 29.4729C43.571 29.4729 44.1683 28.8741 44.1683 28.1364C44.1683 27.3987 43.571 26.7999 42.8318 26.7999C42.0939 26.7999 41.497 27.3987 41.497 28.1364C41.497 28.8741 42.0939 29.4729 42.8318 29.4729Z" fill="#666666"/>
<path d="M24.1741 26.7998C23.4364 26.7998 22.8376 27.3986 22.8376 28.1363C22.8376 28.874 23.4364 29.4728 24.1741 29.4728C24.9118 29.4728 25.5123 28.874 25.5123 28.1363C25.5123 27.3986 24.9118 26.7998 24.1741 26.7998Z" fill="#666666"/>
<path d="M38.169 29.4728C38.9072 29.4728 39.5055 28.8744 39.5055 28.1363C39.5055 27.3982 38.9072 26.7998 38.169 26.7998C37.4309 26.7998 36.8325 27.3982 36.8325 28.1363C36.8325 28.8744 37.4309 29.4728 38.169 29.4728Z" fill="#666666"/>
<path d="M33.502 29.4728C34.2402 29.4728 34.8385 28.8744 34.8385 28.1363C34.8385 27.3982 34.2402 26.7998 33.502 26.7998C32.7639 26.7998 32.1655 27.3982 32.1655 28.1363C32.1655 28.8744 32.7639 29.4728 33.502 29.4728Z" fill="#666666"/>
<path d="M27.5011 28.1363C27.5011 28.874 28.0999 29.4728 28.8376 29.4728C29.5753 29.4728 30.1758 28.874 30.1758 28.1363C30.1758 27.3986 29.5753 26.7998 28.8376 26.7998C28.0999 26.7998 27.5011 27.3986 27.5011 28.1363Z" fill="#666666"/>
<path d="M43.0843 52.6658H37.9164C37.4242 52.6658 37.0254 52.2668 37.0254 51.7748C37.0254 51.2828 37.4242 50.8838 37.9164 50.8838H43.0843C43.5764 50.8838 43.9753 51.2828 43.9753 51.7748C43.9753 52.2668 43.5764 52.6658 43.0843 52.6658Z" fill="#D6977F"/>
<path d="M40.4997 80.9999C39.8261 76.8924 37.13 73.4032 33.3253 71.7156L30.0766 70.2739C25.5807 68.2798 22.6813 63.823 22.6813 58.9047V50.9961C22.6813 45.618 27.0401 41.2592 32.4165 41.2592H34.8417C31.0781 41.2592 28.0273 45.618 28.0273 50.9961V58.9047C28.0273 63.823 30.057 68.2799 33.204 70.2739L35.4779 71.7156C38.1403 73.4032 40.0294 76.8924 40.4997 80.9999Z" fill="#C4783F"/>
<path d="M42.0509 78.7132H38.8737C38.3325 78.7132 37.8936 78.2745 37.8936 77.7331C37.8936 77.1917 38.3325 76.7531 38.8737 76.7531H42.0509C42.5921 76.7531 43.0309 77.1917 43.0309 77.7331C43.0309 78.2743 42.5921 78.7132 42.0509 78.7132Z" fill="#EFBB6A"/>
</svg>
